<svg width="181" height="69" viewBox="0 0 181 69" fill="none" xmlns="http://www.w3.org/2000/svg">
<path d="M68.8265 34.5001C68.8265 53.506 53.4192 68.9133 34.4132 68.9133C15.4073 68.9133 0 53.506 0 34.5001C0 15.4942 15.4073 0.0869141 34.4132 0.0869141C53.4192 0.0869141 68.8265 15.4942 68.8265 34.5001Z" fill="#F5683D" fill-opacity="0.9"/>
<path d="M89.964 44.8477C88.5041 44.8477 87.1841 44.5977 86.0041 44.0977C84.8441 43.5977 83.9241 42.8777 83.2441 41.9377C82.5641 40.9977 82.2141 39.8877 82.1941 38.6077H86.6941C86.7541 39.4677 87.0541 40.1477 87.5941 40.6477C88.1541 41.1477 88.914 41.3977 89.874 41.3977C90.854 41.3977 91.624 41.1677 92.184 40.7077C92.744 40.2277 93.024 39.6077 93.024 38.8477C93.024 38.2277 92.834 37.7177 92.454 37.3177C92.074 36.9177 91.594 36.6077 91.014 36.3877C90.454 36.1477 89.674 35.8877 88.6741 35.6077C87.3141 35.2077 86.2041 34.8177 85.3441 34.4377C84.5041 34.0377 83.7741 33.4477 83.1541 32.6677C82.5541 31.8677 82.2541 30.8077 82.2541 29.4877C82.2541 28.2477 82.5641 27.1677 83.1841 26.2477C83.8041 25.3277 84.6741 24.6277 85.7941 24.1477C86.9141 23.6477 88.1941 23.3977 89.634 23.3977C91.794 23.3977 93.544 23.9277 94.884 24.9877C96.244 26.0277 96.994 27.4877 97.134 29.3677H92.514C92.474 28.6477 92.164 28.0577 91.584 27.5977C91.024 27.1177 90.274 26.8777 89.334 26.8777C88.5141 26.8777 87.8541 27.0877 87.3541 27.5077C86.8741 27.9277 86.6341 28.5377 86.6341 29.3377C86.6341 29.8977 86.8141 30.3677 87.1741 30.7477C87.5541 31.1077 88.0141 31.4077 88.5541 31.6477C89.114 31.8677 89.894 32.1277 90.894 32.4277C92.254 32.8277 93.364 33.2277 94.224 33.6277C95.084 34.0277 95.824 34.6277 96.444 35.4277C97.064 36.2277 97.374 37.2777 97.374 38.5777C97.374 39.6977 97.084 40.7377 96.504 41.6977C95.924 42.6577 95.074 43.4277 93.954 44.0077C92.834 44.5677 91.504 44.8477 89.964 44.8477ZM99.9353 36.2677C99.9353 34.5877 100.265 33.0977 100.925 31.7977C101.605 30.4977 102.515 29.4977 103.655 28.7977C104.815 28.0977 106.105 27.7477 107.525 27.7477C108.765 27.7477 109.845 27.9977 110.765 28.4977C111.705 28.9977 112.455 29.6277 113.015 30.3877V28.0177H117.245V44.6377H113.015V42.2077C112.475 42.9877 111.725 43.6377 110.765 44.1577C109.825 44.6577 108.735 44.9077 107.495 44.9077C106.095 44.9077 104.815 44.5477 103.655 43.8277C102.515 43.1077 101.605 42.0977 100.925 40.7977C100.265 39.4777 99.9353 37.9677 99.9353 36.2677ZM113.015 36.3277C113.015 35.3077 112.815 34.4377 112.415 33.7177C112.015 32.9777 111.475 32.4177 110.795 32.0377C110.115 31.6377 109.385 31.4377 108.605 31.4377C107.825 31.4377 107.105 31.6277 106.445 32.0077C105.785 32.3877 105.245 32.9477 104.825 33.6877C104.425 34.4077 104.225 35.2677 104.225 36.2677C104.225 37.2677 104.425 38.1477 104.825 38.9077C105.245 39.6477 105.785 40.2177 106.445 40.6177C107.125 41.0177 107.845 41.2177 108.605 41.2177C109.385 41.2177 110.115 41.0277 110.795 40.6477C111.475 40.2477 112.015 39.6877 112.415 38.9677C112.815 38.2277 113.015 37.3477 113.015 36.3277ZM131.187 44.6377L125.547 37.5577V44.6377H121.347V22.4377H125.547V35.0677L131.127 28.0177H136.587L129.267 36.3577L136.647 44.6377H131.187ZM137.787 36.2677C137.787 34.5877 138.117 33.0977 138.777 31.7977C139.457 30.4977 140.367 29.4977 141.507 28.7977C142.667 28.0977 143.957 27.7477 145.377 27.7477C146.617 27.7477 147.697 27.9977 148.617 28.4977C149.557 28.9977 150.307 29.6277 150.867 30.3877V28.0177H155.097V44.6377H150.867V42.2077C150.327 42.9877 149.577 43.6377 148.617 44.1577C147.677 44.6577 146.587 44.9077 145.347 44.9077C143.947 44.9077 142.667 44.5477 141.507 43.8277C140.367 43.1077 139.457 42.0977 138.777 40.7977C138.117 39.4777 137.787 37.9677 137.787 36.2677ZM150.867 36.3277C150.867 35.3077 150.667 34.4377 150.267 33.7177C149.867 32.9777 149.327 32.4177 148.647 32.0377C147.967 31.6377 147.237 31.4377 146.457 31.4377C145.677 31.4377 144.957 31.6277 144.297 32.0077C143.637 32.3877 143.097 32.9477 142.677 33.6877C142.277 34.4077 142.077 35.2677 142.077 36.2677C142.077 37.2677 142.277 38.1477 142.677 38.9077C143.097 39.6477 143.637 40.2177 144.297 40.6177C144.977 41.0177 145.697 41.2177 146.457 41.2177C147.237 41.2177 147.967 41.0277 148.647 40.6477C149.327 40.2477 149.867 39.6877 150.267 38.9677C150.667 38.2277 150.867 37.3477 150.867 36.3277ZM168.409 27.7777C170.389 27.7777 171.989 28.4077 173.209 29.6677C174.429 30.9077 175.039 32.6477 175.039 34.8877V44.6377H170.839V35.4577C170.839 34.1377 170.509 33.1277 169.849 32.4277C169.189 31.7077 168.289 31.3477 167.149 31.3477C165.989 31.3477 165.069 31.7077 164.389 32.4277C163.729 33.1277 163.399 34.1377 163.399 35.4577V44.6377H159.199V28.0177H163.399V30.0877C163.959 29.3677 164.669 28.8077 165.529 28.4077C166.409 27.9877 167.369 27.7777 168.409 27.7777Z" fill="#F5F5F5"/>
<g clip-path="url(#clip0_162_635)">
<path d="M51.3615 30.6408L36.0407 18.3842C35.8596 18.2392 35.6344 18.1602 35.4024 18.1602C35.1703 18.1602 34.9451 18.2392 34.764 18.3842L19.4433 30.6408C19.278 30.7734 19.158 30.9541 19.1 31.1579C19.042 31.3617 19.0489 31.5785 19.1196 31.7783C19.1903 31.978 19.3213 32.1508 19.4946 32.2728C19.6679 32.3947 19.8748 32.4598 20.0867 32.4589H22.1295V49.8224C22.1295 50.0932 22.2371 50.353 22.4287 50.5446C22.6202 50.7361 22.88 50.8437 23.1509 50.8437H43.5785V48.801H39.493V39.6085C39.493 39.3376 39.3854 39.0779 39.1938 38.8863C39.0023 38.6948 38.7425 38.5872 38.4716 38.5872H32.3433C32.0724 38.5872 31.8126 38.6948 31.6211 38.8863C31.4295 39.0779 31.3219 39.3376 31.3219 39.6085V48.801H24.1723V32.4589H41.5358V30.4161H22.9977L35.4075 20.4883L47.8173 30.4161H47.664C47.3932 30.4161 47.1334 30.5237 46.9418 30.7153C46.7503 30.9068 46.6427 31.1666 46.6427 31.4375V37.5658H48.6854V32.4589H50.7282C50.9392 32.4576 51.1447 32.3911 51.3163 32.2684C51.488 32.1456 51.6174 31.9727 51.6869 31.7735C51.7563 31.5742 51.7623 31.3583 51.704 31.1555C51.6457 30.9526 51.5261 30.7729 51.3615 30.6408ZM33.3647 40.6299H37.4502V48.801H33.3647V40.6299Z" fill="white"/>
<path d="M44.5966 45.3182L43.279 44.0006L41.8389 45.4407L43.8816 47.4835C44.073 47.6737 44.3319 47.7805 44.6017 47.7805C44.8715 47.7805 45.1304 47.6737 45.3218 47.4835L51.4501 41.3552L50.0099 39.915L44.5966 45.3182Z" fill="white"/>
</g>
<defs>
<clipPath id="clip0_162_635">
<rect width="32.6842" height="32.6842" fill="white" transform="translate(19.0654 18.1592)"/>
</clipPath>
</defs>
</svg>
