<svg width="33" height="15" viewBox="0 0 33 15" fill="none" xmlns="http://www.w3.org/2000/svg">
<path fill-rule="evenodd" clip-rule="evenodd" d="M6.02976 2.34557C5.643 2.81476 5.02418 3.18483 4.40536 3.13197C4.328 2.49756 4.63097 1.8235 4.9855 1.40717C5.37226 0.924758 6.0491 0.581121 6.59701 0.554688C6.66147 1.21553 6.41007 1.86315 6.02976 2.34557ZM6.59052 3.25752C6.04535 3.22535 5.5479 3.4256 5.1461 3.58735C4.88754 3.69144 4.66858 3.77958 4.502 3.77958C4.31506 3.77958 4.08706 3.68673 3.83107 3.58247C3.49564 3.44586 3.11215 3.28967 2.71 3.29717C1.78822 3.31039 0.930894 3.84567 0.460334 4.69815C-0.506572 6.40312 0.208938 8.92753 1.14361 10.3153C1.60128 11.0026 2.1492 11.7559 2.87115 11.7295C3.18877 11.7172 3.41724 11.6178 3.65369 11.5149C3.92591 11.3965 4.2087 11.2735 4.65026 11.2735C5.07651 11.2735 5.34693 11.3933 5.60652 11.5083C5.85334 11.6177 6.09038 11.7227 6.44226 11.7163C7.19 11.7031 7.66056 11.029 8.11823 10.3417C8.61213 9.60409 8.82917 8.8842 8.86211 8.77495L8.86597 8.76232C8.86518 8.76151 8.85908 8.75865 8.84834 8.7536L8.84831 8.75359C8.6832 8.6761 7.42127 8.08383 7.40916 6.49564C7.39701 5.16257 8.4101 4.48716 8.56958 4.38084L8.56961 4.38082C8.5793 4.37436 8.58583 4.37 8.58879 4.36773C7.94418 3.38969 6.9386 3.28395 6.59052 3.25752ZM11.7667 11.6436V1.34108H15.5377C17.4844 1.34108 18.8445 2.71563 18.8445 4.72458C18.8445 6.73353 17.4586 8.1213 15.4861 8.1213H13.3267V11.6436H11.7667ZM13.3265 2.68919H15.125C16.4787 2.68919 17.2522 3.42933 17.2522 4.73119C17.2522 6.03304 16.4787 6.77979 15.1185 6.77979H13.3265V2.68919ZM23.9949 10.4078C23.5824 11.214 22.6735 11.7229 21.6937 11.7229C20.2433 11.7229 19.2313 10.8374 19.2313 9.50246C19.2313 8.18078 20.2111 7.42081 22.0225 7.30847L23.9692 7.18952V6.6212C23.9692 5.78193 23.4341 5.32595 22.4801 5.32595C21.6937 5.32595 21.12 5.74228 21.004 6.37669H19.5987C19.6439 5.04179 20.8686 4.07036 22.5252 4.07036C24.3108 4.07036 25.4711 5.02858 25.4711 6.51546V11.6436H24.0272V10.4078H23.9949ZM22.1126 10.5003C21.281 10.5003 20.7525 10.0906 20.7525 9.46281C20.7525 8.81519 21.2617 8.43851 22.2351 8.37904L23.969 8.26669V8.84823C23.969 9.81306 23.1697 10.5003 22.1126 10.5003ZM30.2604 12.0467C29.6352 13.8508 28.9197 14.4456 27.3984 14.4456C27.2824 14.4456 26.8956 14.4323 26.8053 14.4059V13.1701C26.902 13.1833 27.1405 13.1966 27.263 13.1966C27.9527 13.1966 28.3395 12.8992 28.578 12.126L28.7198 11.67L26.0769 4.16949H27.7078L29.5449 10.2558H29.5771L31.4143 4.16949H33L30.2604 12.0467Z" fill="black"/>
</svg>
