<svg width="19" height="19" viewBox="0 0 19 19" fill="none" xmlns="http://www.w3.org/2000/svg">
<path d="M4.14502 16.0889C4.14502 16.0889 3.0376 16.0889 3.0376 14.9815C3.0376 13.8741 4.14502 10.5518 9.68216 10.5518C15.2193 10.5518 16.3267 13.8741 16.3267 14.9815C16.3267 16.0889 15.2193 16.0889 15.2193 16.0889H4.14502ZM9.68216 9.44437C10.5633 9.44437 11.4083 9.09434 12.0314 8.47129C12.6544 7.84825 13.0044 7.00321 13.0044 6.12209C13.0044 5.24096 12.6544 4.39593 12.0314 3.77288C11.4083 3.14983 10.5633 2.7998 9.68216 2.7998C8.80104 2.7998 7.956 3.14983 7.33295 3.77288C6.7099 4.39593 6.35988 5.24096 6.35988 6.12209C6.35988 7.00321 6.7099 7.84825 7.33295 8.47129C7.956 9.09434 8.80104 9.44437 9.68216 9.44437V9.44437Z" fill="#255685"/>
</svg>
