<svg width="20" height="20" viewBox="0 0 20 20" fill="none" xmlns="http://www.w3.org/2000/svg">
<path d="M10.3403 2.14648C6.04086 2.14648 2.54297 5.64437 2.54297 9.94383C2.54297 14.2433 6.04086 17.7412 10.3403 17.7412C14.6398 17.7412 18.1377 14.2433 18.1377 9.94383C18.1377 5.64437 14.6398 2.14648 10.3403 2.14648ZM10.3403 16.1817C6.90091 16.1817 4.10244 13.3832 4.10244 9.94383C4.10244 6.50442 6.90091 3.70595 10.3403 3.70595C13.7797 3.70595 16.5782 6.50442 16.5782 9.94383C16.5782 13.3832 13.7797 16.1817 10.3403 16.1817Z" fill="#255685"/>
<path d="M11.121 6.04492H9.56152V10.2664L12.1292 12.8341L13.2317 11.7315L11.121 9.62078V6.04492Z" fill="#255685"/>
</svg>
