<svg width="19" height="19" viewBox="0 0 19 19" fill="none" xmlns="http://www.w3.org/2000/svg">
<path d="M5.20994 4.98233C5.20994 3.9736 5.84303 3.10165 6.77314 2.62635V9.35919H8.64898V2.24679H10.5248V9.35919H12.4007V2.62635C13.3308 3.10165 13.9639 3.9736 13.9639 4.98233V9.35919H15.8397V4.98233C15.8397 2.5648 13.6004 0.605469 10.8375 0.605469H8.33634C5.57338 0.605469 3.3341 2.5648 3.3341 4.98233V9.35919H5.20994V4.98233ZM18.2744 12.2965L17.8562 11.2023C17.6843 10.7543 17.2075 10.4534 16.6682 10.4534H2.50169C1.96239 10.4534 1.48561 10.7543 1.31366 11.2023L0.895503 12.2965C0.629759 13.0043 1.23159 13.7361 2.08354 13.7361V17.5658C2.08354 17.8667 2.36491 18.1129 2.70882 18.1129H3.95938C4.30328 18.1129 4.58466 17.8667 4.58466 17.5658V13.7361H14.5891V17.5658C14.5891 17.8667 14.8705 18.1129 15.2144 18.1129H16.465C16.8089 18.1129 17.0903 17.8667 17.0903 17.5658V13.7361C17.9422 13.7361 18.544 13.0043 18.2744 12.2965Z" fill="#255685"/>
</svg>
