<svg width="19" height="18" viewBox="0 0 19 18" fill="none" xmlns="http://www.w3.org/2000/svg">
<path d="M3.48399 7.86717C3.33802 7.86717 3.19802 7.80918 3.0948 7.70596C2.99158 7.60274 2.93359 7.46274 2.93359 7.31676V2.91466C2.93359 2.76868 2.99158 2.62869 3.0948 2.52547C3.19802 2.42225 3.33802 2.36426 3.48399 2.36426H7.8872C8.03318 2.36426 8.17317 2.42225 8.27639 2.52547C8.37961 2.62869 8.4376 2.76868 8.4376 2.91466V7.31676C8.4376 7.46274 8.37961 7.60274 8.27639 7.70596C8.17317 7.80918 8.03318 7.86717 7.8872 7.86717H3.48399ZM11.1896 7.86717C11.0436 7.86717 10.9036 7.80918 10.8004 7.70596C10.6972 7.60274 10.6392 7.46274 10.6392 7.31676V2.91466C10.6392 2.76868 10.6972 2.62869 10.8004 2.52547C10.9036 2.42225 11.0436 2.36426 11.1896 2.36426H15.5917C15.7377 2.36426 15.8777 2.42225 15.9809 2.52547C16.0841 2.62869 16.1421 2.76868 16.1421 2.91466V7.31676C16.1421 7.46274 16.0841 7.60274 15.9809 7.70596C15.8777 7.80918 15.7377 7.86717 15.5917 7.86717H11.1896ZM3.48399 15.5728C3.33802 15.5728 3.19802 15.5148 3.0948 15.4116C2.99158 15.3083 2.93359 15.1684 2.93359 15.0224V10.6192C2.93359 10.4732 2.99158 10.3332 3.0948 10.23C3.19802 10.1268 3.33802 10.0688 3.48399 10.0688H7.8872C8.03318 10.0688 8.17317 10.1268 8.27639 10.23C8.37961 10.3332 8.4376 10.4732 8.4376 10.6192V15.0224C8.4376 15.1684 8.37961 15.3083 8.27639 15.4116C8.17317 15.5148 8.03318 15.5728 7.8872 15.5728H3.48399ZM11.1896 15.5728C11.0436 15.5728 10.9036 15.5148 10.8004 15.4116C10.6972 15.3083 10.6392 15.1684 10.6392 15.0224V10.6192C10.6392 10.4732 10.6972 10.3332 10.8004 10.23C10.9036 10.1268 11.0436 10.0688 11.1896 10.0688H15.5917C15.7377 10.0688 15.8777 10.1268 15.9809 10.23C16.0841 10.3332 16.1421 10.4732 16.1421 10.6192V15.0224C16.1421 15.1684 16.0841 15.3083 15.9809 15.4116C15.8777 15.5148 15.7377 15.5728 15.5917 15.5728H11.1896Z" fill="#255685"/>
</svg>
