<svg width="14" height="13" viewBox="0 0 14 13" fill="none" xmlns="http://www.w3.org/2000/svg">
<path fill-rule="evenodd" clip-rule="evenodd" d="M7.75391 4C6.95826 4 6.31652 4.43739 5.75391 5C5.1913 5.56261 4.75391 6.20435 4.75391 7C4.75391 7.79565 5.1913 8.43739 5.75391 9C6.31652 9.56261 6.95826 10 7.75391 10C8.54956 10 9.1913 9.56261 9.75391 9C10.3165 8.43739 10.7539 7.79565 10.7539 7C10.7539 6.20435 10.3165 5.56261 9.75391 5C9.1913 4.43739 8.54956 4 7.75391 4ZM5.75391 7C5.75391 7.47739 6.41634 7.66243 6.75391 8C7.09147 8.33757 7.27652 9 7.75391 9C8.2313 9 8.41634 8.33757 8.75391 8C9.09147 7.66243 9.75391 7.47739 9.75391 7C9.75391 6.52261 9.09147 6.33757 8.75391 6C8.41634 5.66243 8.2313 5 7.75391 5C7.27652 5 7.09147 5.66243 6.75391 6C6.41634 6.33757 5.75391 6.52261 5.75391 7Z" fill="#344054"/>
<path d="M10.7536 1.99968C10.621 1.99968 9.84736 1.90591 9.75359 1.99968C9.65982 2.09345 9.75359 2.86707 9.75359 2.99968C9.65982 2.90591 9.75359 3.13229 9.75359 2.99968C9.84736 3.09345 10.621 2.99968 10.7536 2.99968C10.6598 3.09345 10.8862 2.99968 10.7536 2.99968C10.7536 3.13229 10.8474 2.90591 10.7536 2.99968C10.7536 2.86707 10.8474 2.09345 10.7536 1.99968C10.8862 1.99968 10.6598 1.90591 10.7536 1.99968Z" fill="#344054"/>
<path fill-rule="evenodd" clip-rule="evenodd" d="M2.75391 0C2.12703 0 2.19717 0.556732 1.75391 1C1.31064 1.44327 0.753906 1.37312 0.753906 2V11C0.753906 11.6269 1.31064 11.5567 1.75391 12C2.19717 12.4433 2.12703 13 2.75391 13H11.7539C12.3808 13 12.3106 12.4433 12.7539 12C13.1972 11.5567 13.7539 11.6269 13.7539 11V2C13.7539 1.37312 13.1972 1.44327 12.7539 1C12.3106 0.556732 12.3808 0 11.7539 0H2.75391ZM11.7539 1H2.75391C2.44047 1 2.97554 1.77837 2.75391 2C2.53227 2.22163 1.75391 1.68656 1.75391 2V11C1.75391 11.3134 2.53227 10.7784 2.75391 11C2.97554 11.2216 2.44047 12 2.75391 12H11.7539C12.0673 12 11.5323 11.2216 11.7539 11C11.9755 10.7784 12.7539 11.3134 12.7539 11V2C12.7539 1.68656 11.9755 2.22163 11.7539 2C11.5323 1.77837 12.0673 1 11.7539 1Z" fill="#344054"/>
</svg>
