<svg width="315" height="325" viewBox="0 0 315 325" fill="none" xmlns="http://www.w3.org/2000/svg">
<rect x="60.0801" y="0.0859375" width="194.829" height="194.829" rx="97.4143" fill="#E06644"/>
<g clip-path="url(#clip0_9_281)">
<path d="M201.318 87.1985L157.482 52.1294C156.963 51.7144 156.319 51.4883 155.655 51.4883C154.991 51.4883 154.347 51.7144 153.829 52.1294L109.992 87.1985C109.519 87.5779 109.176 88.095 109.01 88.6781C108.844 89.2613 108.864 89.8816 109.066 90.4531C109.268 91.0247 109.643 91.5191 110.139 91.8681C110.635 92.217 111.227 92.403 111.833 92.4005H117.678V142.082C117.678 142.857 117.986 143.6 118.534 144.148C119.082 144.696 119.825 145.004 120.601 145.004H179.049V139.159H167.359V112.857C167.359 112.082 167.052 111.339 166.503 110.791C165.955 110.243 165.212 109.935 164.437 109.935H146.902C146.127 109.935 145.384 110.243 144.836 110.791C144.288 111.339 143.98 112.082 143.98 112.857V139.159H123.523V92.4005H173.204V86.5556H120.162L155.67 58.1496L191.177 86.5556H190.739C189.964 86.5556 189.22 86.8635 188.672 87.4116C188.124 87.9596 187.816 88.7029 187.816 89.478V107.013H193.661V92.4005H199.506C200.11 92.397 200.698 92.2066 201.189 91.8554C201.68 91.5042 202.051 91.0096 202.249 90.4394C202.448 89.8692 202.465 89.2514 202.298 88.6711C202.131 88.0908 201.789 87.5764 201.318 87.1985ZM149.825 115.78H161.515V139.159H149.825V115.78Z" fill="white"/>
<path d="M181.972 129.194L178.202 125.424L174.081 129.545L179.926 135.39C180.473 135.934 181.214 136.239 181.986 136.239C182.758 136.239 183.499 135.934 184.047 135.39L201.581 117.855L197.461 113.734L181.972 129.194Z" fill="white"/>
</g>
<path d="M35.188 324.573C30.6049 324.573 26.4612 323.788 22.7571 322.219C19.1157 320.649 16.2277 318.389 14.0931 315.438C11.9585 312.488 10.8598 309.003 10.797 304.985H24.9231C25.1114 307.685 26.0532 309.819 27.7483 311.389C29.5062 312.959 31.8919 313.743 34.9055 313.743C37.9818 313.743 40.399 313.021 42.1569 311.577C43.9148 310.071 44.7937 308.124 44.7937 305.739C44.7937 303.792 44.1973 302.191 43.0044 300.936C41.8116 299.68 40.3048 298.707 38.4841 298.016C36.7262 297.263 34.2777 296.447 31.1385 295.568C26.8693 294.312 23.3849 293.088 20.6852 291.895C18.0484 290.639 15.7568 288.787 13.8106 286.339C11.9271 283.827 10.9853 280.5 10.9853 276.356C10.9853 272.464 11.9585 269.074 13.9047 266.186C15.851 263.298 18.582 261.1 22.0979 259.593C25.6137 258.024 29.6318 257.239 34.1521 257.239C40.9326 257.239 46.4261 258.903 50.6325 262.23C54.9017 265.495 57.2561 270.078 57.6955 275.98H43.1928C43.0672 273.719 42.0941 271.867 40.2734 270.423C38.5155 268.917 36.1611 268.163 33.2104 268.163C30.6363 268.163 28.5645 268.822 26.9949 270.141C25.4881 271.459 24.7347 273.374 24.7347 275.885C24.7347 277.643 25.2998 279.119 26.4298 280.312C27.6227 281.442 29.0667 282.383 30.7618 283.137C32.5197 283.827 34.9683 284.644 38.1074 285.585C42.3766 286.841 45.861 288.097 48.5607 289.352C51.2603 290.608 53.5833 292.491 55.5295 295.003C57.4758 297.514 58.4489 300.81 58.4489 304.891C58.4489 308.407 57.5386 311.671 55.7179 314.685C53.8972 317.699 51.2289 320.116 47.7131 321.936C44.1973 323.694 40.0223 324.573 35.188 324.573ZM66.489 297.64C66.489 292.366 67.5249 287.689 69.5967 283.608C71.7313 279.527 74.5879 276.388 78.1666 274.19C81.8079 271.993 85.8574 270.894 90.315 270.894C94.2075 270.894 97.5977 271.679 100.486 273.249C103.437 274.818 105.791 276.796 107.549 279.182V271.742H120.827V323.914H107.549V316.286C105.854 318.735 103.499 320.775 100.486 322.407C97.535 323.977 94.1133 324.762 90.2208 324.762C85.826 324.762 81.8079 323.632 78.1666 321.371C74.5879 319.111 71.7313 315.941 69.5967 311.86C67.5249 307.716 66.489 302.976 66.489 297.64ZM107.549 297.828C107.549 294.626 106.921 291.895 105.665 289.635C104.41 287.312 102.715 285.554 100.58 284.361C98.4453 283.105 96.1537 282.478 93.7052 282.478C91.2567 282.478 88.9965 283.074 86.9247 284.267C84.8529 285.46 83.1578 287.218 81.8393 289.541C80.5837 291.801 79.9559 294.5 79.9559 297.64C79.9559 300.779 80.5837 303.541 81.8393 305.927C83.1578 308.25 84.8529 310.039 86.9247 311.295C89.0593 312.55 91.3195 313.178 93.7052 313.178C96.1537 313.178 98.4453 312.582 100.58 311.389C102.715 310.133 104.41 308.375 105.665 306.115C106.921 303.792 107.549 301.03 107.549 297.828ZM164.593 323.914L146.888 301.689V323.914H133.704V254.225H146.888V293.873L164.405 271.742H181.544L158.566 297.922L181.733 323.914H164.593ZM185.31 297.64C185.31 292.366 186.346 287.689 188.418 283.608C190.552 279.527 193.409 276.388 196.987 274.19C200.629 271.993 204.678 270.894 209.136 270.894C213.028 270.894 216.419 271.679 219.307 273.249C222.257 274.818 224.612 276.796 226.37 279.182V271.742H239.648V323.914H226.37V316.286C224.674 318.735 222.32 320.775 219.307 322.407C216.356 323.977 212.934 324.762 209.042 324.762C204.647 324.762 200.629 323.632 196.987 321.371C193.409 319.111 190.552 315.941 188.418 311.86C186.346 307.716 185.31 302.976 185.31 297.64ZM226.37 297.828C226.37 294.626 225.742 291.895 224.486 289.635C223.23 287.312 221.535 285.554 219.401 284.361C217.266 283.105 214.975 282.478 212.526 282.478C210.077 282.478 207.817 283.074 205.745 284.267C203.674 285.46 201.979 287.218 200.66 289.541C199.404 291.801 198.777 294.5 198.777 297.64C198.777 300.779 199.404 303.541 200.66 305.927C201.979 308.25 203.674 310.039 205.745 311.295C207.88 312.55 210.14 313.178 212.526 313.178C214.975 313.178 217.266 312.582 219.401 311.389C221.535 310.133 223.23 308.375 224.486 306.115C225.742 303.792 226.37 301.03 226.37 297.828ZM281.436 270.988C287.652 270.988 292.674 272.966 296.504 276.921C300.334 280.814 302.249 286.276 302.249 293.308V323.914H289.064V295.097C289.064 290.953 288.028 287.783 285.957 285.585C283.885 283.325 281.059 282.195 277.481 282.195C273.839 282.195 270.951 283.325 268.817 285.585C266.745 287.783 265.709 290.953 265.709 295.097V323.914H252.525V271.742H265.709V278.24C267.467 275.98 269.696 274.222 272.395 272.966C275.158 271.648 278.171 270.988 281.436 270.988Z" fill="#F5F5F5"/>
<defs>
<clipPath id="clip0_9_281">
<rect width="93.5178" height="93.5177" fill="white" transform="translate(108.91 51.4863)"/>
</clipPath>
</defs>
</svg>
