<svg width="200" height="76" viewBox="0 0 200 76" fill="none" xmlns="http://www.w3.org/2000/svg">
  <path
    d="M76.0188 38.0001C76.0188 58.9341 59.0484 75.9045 38.1144 75.9045C17.1803 75.9045 0.209961 58.9341 0.209961 38.0001C0.209961 17.0661 17.1803 0.0957031 38.1144 0.0957031C59.0484 0.0957031 76.0188 17.0661 76.0188 38.0001Z"
    fill="#F5683D" fill-opacity="0.9" />
  <path
    d="M99.3001 49.2674C97.692 49.2674 96.2381 48.9921 94.9384 48.4414C93.6607 47.8906 92.6474 47.0976 91.8984 46.0622C91.1494 45.0269 90.7639 43.8043 90.7419 42.3944H95.6984C95.7645 43.3416 96.0949 44.0906 96.6897 44.6414C97.3065 45.1921 98.1436 45.4674 99.201 45.4674C100.28 45.4674 101.129 45.2141 101.745 44.7074C102.362 44.1787 102.671 43.4958 102.671 42.6587C102.671 41.9758 102.461 41.4141 102.043 40.9735C101.624 40.533 101.095 40.1915 100.457 39.9492C99.8398 39.6848 98.9807 39.3985 97.8792 39.0901C96.3813 38.6495 95.1587 38.2199 94.2114 37.8014C93.2862 37.3608 92.4821 36.7109 91.7992 35.8518C91.1384 34.9706 90.8079 33.8031 90.8079 32.3492C90.8079 30.9834 91.1494 29.7938 91.8323 28.7805C92.5152 27.7672 93.4734 26.9962 94.7071 26.4675C95.9407 25.9167 97.3505 25.6414 98.9366 25.6414C101.316 25.6414 103.243 26.2251 104.719 27.3927C106.217 28.5382 107.043 30.1463 107.197 32.217H102.109C102.065 31.424 101.723 30.7741 101.084 30.2675C100.468 29.7388 99.6416 29.4744 98.6062 29.4744C97.703 29.4744 96.9761 29.7057 96.4253 30.1683C95.8966 30.6309 95.6323 31.3028 95.6323 32.184C95.6323 32.8008 95.8305 33.3185 96.2271 33.737C96.6456 34.1335 97.1523 34.464 97.7471 34.7283C98.3639 34.9706 99.223 35.257 100.324 35.5875C101.822 36.028 103.045 36.4686 103.992 36.9092C104.94 37.3498 105.755 38.0106 106.437 38.8918C107.12 39.773 107.462 40.9295 107.462 42.3614C107.462 43.595 107.142 44.7405 106.504 45.7979C105.865 46.8553 104.929 47.7034 103.695 48.3422C102.461 48.959 100.996 49.2674 99.3001 49.2674ZM110.283 39.817C110.283 37.9666 110.646 36.3254 111.373 34.8935C112.122 33.4617 113.125 32.3602 114.38 31.5892C115.658 30.8182 117.079 30.4327 118.643 30.4327C120.009 30.4327 121.198 30.708 122.212 31.2588C123.247 31.8095 124.073 32.5034 124.69 33.3405V30.7301H129.349V49.0361H124.69V46.3596C124.095 47.2187 123.269 47.9347 122.212 48.5074C121.176 49.0582 119.976 49.3335 118.61 49.3335C117.068 49.3335 115.658 48.937 114.38 48.144C113.125 47.3509 112.122 46.2385 111.373 44.8066C110.646 43.3527 110.283 41.6895 110.283 39.817ZM124.69 39.8831C124.69 38.7596 124.47 37.8014 124.029 37.0083C123.588 36.1932 122.994 35.5764 122.245 35.1579C121.496 34.7173 120.692 34.497 119.832 34.497C118.973 34.497 118.18 34.7063 117.453 35.1248C116.726 35.5434 116.132 36.1602 115.669 36.9753C115.228 37.7683 115.008 38.7156 115.008 39.817C115.008 40.9185 115.228 41.8877 115.669 42.7248C116.132 43.5399 116.726 44.1677 117.453 44.6083C118.202 45.0489 118.995 45.2692 119.832 45.2692C120.692 45.2692 121.496 45.0599 122.245 44.6414C122.994 44.2008 123.588 43.584 124.029 42.7909C124.47 41.9758 124.69 41.0066 124.69 39.8831ZM144.705 49.0361L138.493 41.2379V49.0361H133.867V24.584H138.493V38.4953L144.639 30.7301H150.653L142.591 39.9161L150.719 49.0361H144.705ZM151.974 39.817C151.974 37.9666 152.338 36.3254 153.065 34.8935C153.814 33.4617 154.816 32.3602 156.072 31.5892C157.35 30.8182 158.77 30.4327 160.334 30.4327C161.7 30.4327 162.89 30.708 163.903 31.2588C164.939 31.8095 165.765 32.5034 166.381 33.3405V30.7301H171.041V49.0361H166.381V46.3596C165.787 47.2187 164.961 47.9347 163.903 48.5074C162.868 49.0582 161.667 49.3335 160.301 49.3335C158.759 49.3335 157.35 48.937 156.072 48.144C154.816 47.3509 153.814 46.2385 153.065 44.8066C152.338 43.3527 151.974 41.6895 151.974 39.817ZM166.381 39.8831C166.381 38.7596 166.161 37.8014 165.721 37.0083C165.28 36.1932 164.685 35.5764 163.936 35.1579C163.187 34.7173 162.383 34.497 161.524 34.497C160.665 34.497 159.872 34.7063 159.145 35.1248C158.418 35.5434 157.823 36.1602 157.361 36.9753C156.92 37.7683 156.7 38.7156 156.7 39.817C156.7 40.9185 156.92 41.8877 157.361 42.7248C157.823 43.5399 158.418 44.1677 159.145 44.6083C159.894 45.0489 160.687 45.2692 161.524 45.2692C162.383 45.2692 163.187 45.0599 163.936 44.6414C164.685 44.2008 165.28 43.584 165.721 42.7909C166.161 41.9758 166.381 41.0066 166.381 39.8831ZM185.703 30.4657C187.884 30.4657 189.646 31.1596 190.99 32.5475C192.334 33.9132 193.006 35.8298 193.006 38.297V49.0361H188.38V38.9248C188.38 37.4709 188.016 36.3585 187.289 35.5875C186.562 34.7944 185.571 34.3979 184.315 34.3979C183.038 34.3979 182.024 34.7944 181.275 35.5875C180.548 36.3585 180.185 37.4709 180.185 38.9248V49.0361H175.559V30.7301H180.185V33.0101C180.802 32.217 181.584 31.6002 182.531 31.1596C183.5 30.697 184.558 30.4657 185.703 30.4657Z"
    fill="#F5F5F5" />
  <g clip-path="url(#clip0_144_1874)">
    <path
      d="M56.7824 33.7478L39.9073 20.2478C39.7078 20.088 39.4598 20.001 39.2042 20.001C38.9486 20.001 38.7006 20.088 38.5011 20.2478L21.6261 33.7478C21.444 33.8938 21.3119 34.0929 21.248 34.3174C21.1842 34.5418 21.1917 34.7806 21.2695 35.0006C21.3474 35.2207 21.4918 35.411 21.6827 35.5453C21.8735 35.6796 22.1014 35.7513 22.3348 35.7503H24.5848V54.8753C24.5848 55.1737 24.7034 55.4598 24.9143 55.6708C25.1253 55.8818 25.4115 56.0003 25.7098 56.0003H48.2098V53.7503H43.7098V43.6253C43.7098 43.3269 43.5913 43.0408 43.3803 42.8298C43.1694 42.6188 42.8832 42.5003 42.5848 42.5003H35.8348C35.5365 42.5003 35.2503 42.6188 35.0393 42.8298C34.8284 43.0408 34.7098 43.3269 34.7098 43.6253V53.7503H26.8348V35.7503H45.9598V33.5003H25.5411L39.2098 22.5653L52.8786 33.5003H52.7099C52.4115 33.5003 52.1253 33.6188 51.9144 33.8298C51.7034 34.0408 51.5848 34.3269 51.5848 34.6253V41.3753H53.8349V35.7503H56.0849C56.3173 35.7489 56.5436 35.6756 56.7327 35.5405C56.9217 35.4053 57.0643 35.2148 57.1408 34.9953C57.2172 34.7758 57.2238 34.5381 57.1596 34.3147C57.0955 34.0913 56.9637 33.8932 56.7824 33.7478ZM36.9598 44.7503H41.4598V53.7503H36.9598V44.7503Z"
      fill="white" />
    <path
      d="M49.3349 49.9141L47.8836 48.4629L46.2974 50.0491L48.5474 52.2991C48.7581 52.5087 49.0433 52.6263 49.3405 52.6263C49.6377 52.6263 49.9228 52.5087 50.1336 52.2991L56.8836 45.5491L55.2974 43.9629L49.3349 49.9141Z"
      fill="white" />
  </g>
  <defs>
    <clipPath id="clip0_144_1874">
      <rect width="36" height="36" fill="white" transform="translate(21.21 20)" />
    </clipPath>
  </defs>
</svg>