<svg width="15" height="19" viewBox="0 0 15 19" fill="none" xmlns="http://www.w3.org/2000/svg">
<path fill-rule="evenodd" clip-rule="evenodd" d="M4.08855 17.6814L4.38285 15.7492L3.72726 15.7334H0.59668L2.77232 1.47526C2.7791 1.43208 2.80101 1.392 2.83301 1.36349C2.86517 1.33498 2.90615 1.31934 2.94903 1.31934H8.22767C9.98022 1.31934 11.1896 1.69618 11.8209 2.44011C12.1169 2.78909 12.3055 3.15389 12.3967 3.55517C12.4924 3.97634 12.494 4.47945 12.4007 5.0932L12.3939 5.13784V5.53114L12.6899 5.7045C12.9391 5.84119 13.1373 5.9976 13.2892 6.17666C13.5424 6.47514 13.7062 6.85443 13.7754 7.30394C13.8469 7.76633 13.8233 8.31669 13.7062 8.93972C13.5711 9.65627 13.3528 10.2804 13.0578 10.7911C12.7867 11.2616 12.4412 11.652 12.0309 11.9543C11.6391 12.2418 11.1738 12.4599 10.6476 12.5995C10.1377 12.7367 9.55635 12.806 8.91873 12.806H8.50794C8.21427 12.806 7.92895 12.9153 7.70496 13.1113C7.48033 13.3114 7.33184 13.5848 7.28629 13.8837L7.25523 14.0577L6.7352 17.4634L6.71172 17.5883C6.70541 17.6279 6.69469 17.6476 6.67893 17.661C6.6649 17.6732 6.64472 17.6814 6.62502 17.6814H4.08855Z" fill="#28356A"/>
<path fill-rule="evenodd" clip-rule="evenodd" d="M12.9703 5.18359C12.9547 5.2877 12.9366 5.39409 12.9164 5.50342C12.2203 9.19761 9.83862 10.4738 6.79695 10.4738H5.24821C4.87619 10.4738 4.56266 10.7529 4.50481 11.1322L3.48729 17.8032C3.44962 18.0523 3.63531 18.2767 3.87838 18.2767H6.62528C6.95048 18.2767 7.22681 18.0324 7.27804 17.7009L7.305 17.5567L7.82219 14.1644L7.85545 13.9783C7.90605 13.6457 8.18301 13.4013 8.5082 13.4013H8.91899C11.5803 13.4013 13.6637 12.2846 14.2727 9.05277C14.5269 7.70276 14.3953 6.57547 13.7222 5.78267C13.5186 5.54366 13.2659 5.34522 12.9703 5.18359Z" fill="#298FC2"/>
<path fill-rule="evenodd" clip-rule="evenodd" d="M12.2423 4.88324C12.1359 4.85114 12.0262 4.82214 11.9136 4.79591C11.8004 4.77033 11.6846 4.74768 11.5652 4.72781C11.1477 4.65807 10.6901 4.625 10.2 4.625H6.06261C5.96062 4.625 5.86383 4.64879 5.77729 4.6918C5.5864 4.78662 5.44469 4.97334 5.41032 5.20192L4.5301 10.964L4.50488 11.1319C4.56273 10.7527 4.87626 10.4736 5.24828 10.4736H6.79702C9.83869 10.4736 12.2204 9.19671 12.9165 5.50317C12.9373 5.39385 12.9548 5.28746 12.9704 5.18335C12.7943 5.08673 12.6036 5.00413 12.3982 4.93375C12.3474 4.91631 12.2951 4.89953 12.2423 4.88324Z" fill="#22284F"/>
<path fill-rule="evenodd" clip-rule="evenodd" d="M5.41037 5.20182C5.44474 4.97324 5.58645 4.78652 5.77734 4.69235C5.86451 4.64918 5.96067 4.62539 6.06266 4.62539H10.2C10.6901 4.62539 11.1477 4.65863 11.5653 4.72836C11.6846 4.74807 11.8005 4.77088 11.9137 4.79646C12.0262 4.82253 12.1359 4.85169 12.2423 4.88363C12.2951 4.89992 12.3475 4.91686 12.3987 4.93365C12.6041 5.00403 12.795 5.08729 12.9711 5.18325C13.1782 3.81809 12.9693 2.8886 12.2552 2.04692C11.4679 1.1202 10.047 0.723633 8.22868 0.723633H2.94989C2.5785 0.723633 2.26166 1.00273 2.20428 1.38267L0.00562688 15.7875C-0.0377221 16.0724 0.174924 16.3295 0.452988 16.3295H3.71188L5.41037 5.20182Z" fill="#28356A"/>
</svg>
