<svg width="13" height="14" viewBox="0 0 13 14" fill="none" xmlns="http://www.w3.org/2000/svg">
<path d="M11.7542 1.00032H1.75423C1.57919 1.00032 0.878003 0.876549 0.754229 1.00032C0.630455 1.1241 0.754229 1.82528 0.754229 2.00032V12.0003C0.754229 12.1754 0.630455 12.8765 0.754229 13.0003C0.878003 13.1241 1.57919 13.0003 1.75423 13.0003H6.75423V8.00032H5.75423V7.00032H6.75423V5.00032C6.72191 4.68338 7.6497 4.30128 7.75423 4.00032C7.85876 3.69937 7.53241 3.229 7.75423 3.00032C7.97605 2.77164 8.4566 3.11396 8.75423 3.00032C9.05186 2.88668 9.43645 2.97767 9.75423 3.00032C10.2212 2.99745 10.29 2.94949 10.7542 3.00032V4.00032H9.75423C8.99823 4.00032 8.75423 4.47832 8.75423 5.00032V7.00032H10.7542V8.00032H8.75423V13.0003H11.7542C11.8409 13.0003 12.6742 13.0335 12.7542 13.0003C12.6929 13.0616 12.8343 12.9672 12.7542 13.0003C12.7211 13.0804 12.8155 12.939 12.7542 13.0003C12.7874 12.9202 12.7542 12.087 12.7542 12.0003V2.00032C12.7542 1.91365 12.7874 1.0804 12.7542 1.00032C12.7211 0.920248 12.8155 1.06161 12.7542 1.00032C12.6929 0.939037 12.8343 1.03349 12.7542 1.00032C12.6742 0.967155 11.8409 1.00032 11.7542 1.00032Z" fill="#344054"/>
</svg>
