<svg width="12" height="15" viewBox="0 0 12 15" fill="none" xmlns="http://www.w3.org/2000/svg">
<path d="M6.19998 14.8392C5.2092 13.9941 4.29083 13.0676 3.45448 12.0694C2.1994 10.5704 0.708985 8.33791 0.708985 6.21054C0.708441 5.12408 1.03021 4.06188 1.63358 3.15836C2.23695 2.25484 3.0948 1.55062 4.09855 1.13482C5.1023 0.71903 6.20684 0.61035 7.27238 0.822539C8.33792 1.03473 9.31657 1.55825 10.0845 2.32684C10.5957 2.83583 11.0009 3.44115 11.2767 4.10779C11.5525 4.77442 11.6933 5.48913 11.691 6.21054C11.691 8.33791 10.2006 10.5704 8.94548 12.0694C8.10912 13.0676 7.19076 13.9941 6.19998 14.8392ZM6.19998 3.85726C5.57585 3.85726 4.97728 4.1052 4.53596 4.54652C4.09463 4.98785 3.8467 5.58641 3.8467 6.21054C3.8467 6.83467 4.09463 7.43324 4.53596 7.87457C4.97728 8.31589 5.57585 8.56383 6.19998 8.56383C6.82411 8.56383 7.42268 8.31589 7.864 7.87457C8.30533 7.43324 8.55326 6.83467 8.55326 6.21054C8.55326 5.58641 8.30533 4.98785 7.864 4.54652C7.42268 4.1052 6.82411 3.85726 6.19998 3.85726Z" fill="#255685"/>
</svg>
