<svg width="12" height="12" viewBox="0 0 12 12" fill="none" xmlns="http://www.w3.org/2000/svg">
<path d="M9.75342 2C9.27387 1.47975 8.75322 0.691622 8.75342 0H6.75342V8C6.7367 8.44735 6.09233 8.68912 5.75342 9C5.41451 9.31088 5.22446 9.99994 4.75342 10C3.75724 10 2.75342 8.96 2.75342 8C2.75342 6.85333 4.5538 6.64667 5.75342 7V4C3.33314 3.69333 0.753418 5.72 0.753418 8C0.753418 10.22 2.69793 12 4.75342 12C6.95622 12 8.75342 10.1 8.75342 8V4C9.63243 4.5999 10.6712 5.00176 11.7534 5V3C11.7534 3 10.7075 3.04667 9.75342 2Z" fill="#344054"/>
</svg>
