<svg width="19" height="15" viewBox="0 0 19 15" fill="none" xmlns="http://www.w3.org/2000/svg">
<path d="M5.57595 7.47493C6.78986 7.47493 7.77755 6.24031 7.77755 4.72292C7.77755 3.20554 6.78986 1.97092 5.57595 1.97092C4.36204 1.97092 3.37435 3.20554 3.37435 4.72292C3.37435 6.24031 4.36204 7.47493 5.57595 7.47493ZM15.263 3.07172H9.09851C8.85524 3.07172 8.65819 3.31802 8.65819 3.62212V8.57573H2.4937V1.42052C2.4937 1.11642 2.29666 0.870117 2.05338 0.870117H1.17274C0.929465 0.870117 0.732422 1.11642 0.732422 1.42052V13.5293C0.732422 13.8334 0.929465 14.0797 1.17274 14.0797H2.05338C2.29666 14.0797 2.4937 13.8334 2.4937 13.5293V11.8781H16.584V13.5293C16.584 13.8334 16.781 14.0797 17.0243 14.0797H17.9049C18.1482 14.0797 18.3452 13.8334 18.3452 13.5293V6.92453C18.3452 4.79654 16.9654 3.07172 15.263 3.07172Z" fill="#255685"/>
</svg>
