<svg width="14" height="14" viewBox="0 0 14 14" fill="none" xmlns="http://www.w3.org/2000/svg">
<path d="M12.7542 0.999805C13.1373 0.999805 13.4833 0.749756 13.7542 0.999805C14.0251 1.24985 13.7542 1.64618 13.7542 1.9998V11.9998C13.7542 12.3534 14.0251 12.7498 13.7542 12.9998C13.4833 13.2499 13.1373 12.9998 12.7542 12.9998H1.75418C1.37109 12.9998 1.02507 13.2499 0.754183 12.9998C0.483297 12.7498 0.754183 12.3534 0.754183 11.9998V1.9998C0.754183 1.64618 0.483297 1.24985 0.754183 0.999805C1.02507 0.749756 1.37109 0.999805 1.75418 0.999805H12.7542ZM11.7542 10.9998V7.9998C11.7542 7.4234 12.1957 6.40738 11.7542 5.9998C11.3126 5.59223 10.3786 5.9998 9.75418 5.9998C9.14029 5.9998 8.10085 5.4798 7.75418 5.9998H5.75418V10.9998H7.75418V7.9998C7.75418 7.48647 8.19807 6.9998 8.75418 6.9998C9.02235 6.9998 9.56456 6.82477 9.75418 6.9998C9.9438 7.17484 9.75418 7.75227 9.75418 7.9998V10.9998H11.7542ZM3.75418 4.9998C4.07598 4.9998 4.52664 4.20985 4.75418 3.9998C4.75418 4.29685 4.98173 3.78976 4.75418 3.9998C4.75418 3.3798 4.42585 1.9998 3.75418 1.9998C3.43047 1.9998 2.98308 2.78851 2.75418 2.9998C2.52528 3.2111 2.75418 3.70099 2.75418 3.9998C2.75418 4.6198 3.08252 4.9998 3.75418 4.9998ZM4.75418 10.9998V5.9998H2.75418V10.9998H4.75418Z" fill="#1D2939"/>
</svg>
