<svg width="18" height="19" viewBox="0 0 18 19" fill="none" xmlns="http://www.w3.org/2000/svg">
<path d="M1.2883 13.8788C1.28925 14.3409 1.3878 14.7977 1.5775 15.2191C1.7672 15.6405 2.04377 16.0171 2.3891 16.3243V17.7316C2.3891 17.8775 2.44709 18.0175 2.55031 18.1208C2.65353 18.224 2.79353 18.282 2.9395 18.282H4.04031C4.18628 18.282 4.32628 18.224 4.4295 18.1208C4.53272 18.0175 4.59071 17.8775 4.59071 17.7316V17.1812H13.3971V17.7316C13.3971 17.8775 13.4551 18.0175 13.5583 18.1208C13.6615 18.224 13.8015 18.282 13.9475 18.282H15.0483C15.1943 18.282 15.3343 18.224 15.4375 18.1208C15.5407 18.0175 15.5987 17.8775 15.5987 17.7316V16.3243C15.9441 16.0171 16.2206 15.6405 16.4103 15.2191C16.6 14.7977 16.6986 14.3409 16.6995 13.8788V12.2276H1.2883V13.8788ZM17.2499 9.47556H2.9395V3.05135C2.93982 2.90689 2.9829 2.76576 3.06333 2.64576C3.14376 2.52576 3.25792 2.43227 3.39141 2.37708C3.52491 2.32188 3.67176 2.30746 3.81345 2.33563C3.95513 2.36379 4.0853 2.43329 4.18754 2.53535L4.85043 3.19789C4.39875 4.22576 4.58864 5.23128 5.14696 5.94061L5.14111 5.94645C5.03828 6.04962 4.98054 6.18934 4.98054 6.335C4.98054 6.48066 5.03828 6.62038 5.14111 6.72355L5.53017 7.11262C5.58128 7.16374 5.64196 7.20429 5.70875 7.23196C5.77554 7.25963 5.84712 7.27387 5.91941 7.27387C5.9917 7.27387 6.06328 7.25963 6.13007 7.23196C6.19685 7.20429 6.25753 7.16374 6.30864 7.11262L9.93338 3.48788C9.9845 3.43677 10.0251 3.37609 10.0527 3.30931C10.0804 3.24252 10.0946 3.17094 10.0946 3.09865C10.0946 3.02636 10.0804 2.95477 10.0527 2.88799C10.0251 2.8212 9.9845 2.76052 9.93338 2.70941L9.54431 2.32035C9.4411 2.2172 9.30116 2.15926 9.15525 2.15926C9.00934 2.15926 8.86939 2.2172 8.76618 2.32035L8.76034 2.32619C8.05101 1.76788 7.04618 1.57799 6.01762 2.02966L5.35508 1.36678C5.02192 1.03358 4.59743 0.806665 4.1353 0.714731C3.67318 0.622796 3.19416 0.669972 2.75885 0.850292C2.32353 1.03061 1.95147 1.33597 1.68971 1.72776C1.42796 2.11955 1.28826 2.58016 1.2883 3.05135V9.47556H0.737901C0.591925 9.47556 0.451929 9.53354 0.348709 9.63676C0.245488 9.73998 0.1875 9.87998 0.1875 10.026L0.1875 10.5764C0.1875 10.7223 0.245488 10.8623 0.348709 10.9656C0.451929 11.0688 0.591925 11.1268 0.737901 11.1268H17.2499C17.3959 11.1268 17.5359 11.0688 17.6391 10.9656C17.7423 10.8623 17.8003 10.7223 17.8003 10.5764V10.026C17.8003 9.87998 17.7423 9.73998 17.6391 9.63676C17.5359 9.53354 17.3959 9.47556 17.2499 9.47556Z" fill="#255685"/>
</svg>
