<svg width="32" height="11" viewBox="0 0 32 11" fill="none" xmlns="http://www.w3.org/2000/svg">
<path fill-rule="evenodd" clip-rule="evenodd" d="M7.93367 10.6314H5.18735L3.12794 2.54361C3.03019 2.17157 2.82264 1.84266 2.51735 1.68765C1.75545 1.29808 0.915887 0.98805 0 0.831685V0.520304H4.42411C5.0347 0.520304 5.49264 0.98805 5.56897 1.53128L6.6375 7.3653L9.38248 0.520304H12.0525L7.93367 10.6314ZM13.579 10.6314H10.9853L13.121 0.520304H15.7147L13.579 10.6314ZM19.0703 3.32139C19.1466 2.77681 19.6045 2.46543 20.1388 2.46543C20.9784 2.38725 21.8929 2.54361 22.6562 2.93183L23.1141 0.754856C22.3509 0.443474 21.5113 0.287109 20.7494 0.287109C18.232 0.287109 16.4003 1.68765 16.4003 3.63143C16.4003 5.11015 17.6978 5.88658 18.6137 6.35433C19.6045 6.82073 19.9862 7.13211 19.9098 7.59851C19.9098 8.29811 19.1466 8.60949 18.3847 8.60949C17.4688 8.60949 16.5529 8.37629 15.7147 7.98673L15.2568 10.165C16.1726 10.5533 17.1635 10.7096 18.0794 10.7096C20.902 10.7865 22.6562 9.38727 22.6562 7.28713C22.6562 4.64241 19.0703 4.48739 19.0703 3.32139ZM31.7333 10.6314L29.6739 0.520304H27.4619C27.0039 0.520304 26.546 0.831685 26.3933 1.29808L22.5798 10.6314H25.2498L25.7827 9.15406H29.0633L29.3686 10.6314H31.7333ZM27.8435 3.24322L28.6054 7.05394H26.4697L27.8435 3.24322Z" fill="#172B85"/>
</svg>
